<mxfile host="Electron" modified="2023-10-04T03:57:03.745Z" agent="Mozilla/5.0 (Windows NT 10.0; Win64; x64) AppleWebKit/537.36 (KHTML, like Gecko) draw.io/21.7.5 Chrome/114.0.5735.289 Electron/25.8.1 Safari/537.36" etag="4LubHti36UsueO0mhfS_" version="21.7.5" type="device">
  <diagram id="C5RBs43oDa-KdzZeNtuy" name="Page-1">
    <mxGraphModel dx="1560" dy="992" grid="1" gridSize="10" guides="1" tooltips="1" connect="1" arrows="1" fold="1" page="1" pageScale="1" pageWidth="827" pageHeight="1169" math="0" shadow="0">
      <root>
        <mxCell id="WIyWlLk6GJQsqaUBKTNV-0" />
        <mxCell id="WIyWlLk6GJQsqaUBKTNV-1" parent="WIyWlLk6GJQsqaUBKTNV-0" />
        <mxCell id="xwTxOlrmxbcmbd0Et-hI-4" value="" style="edgeStyle=orthogonalEdgeStyle;rounded=0;orthogonalLoop=1;jettySize=auto;html=1;" edge="1" parent="WIyWlLk6GJQsqaUBKTNV-1" source="xwTxOlrmxbcmbd0Et-hI-0" target="xwTxOlrmxbcmbd0Et-hI-1">
          <mxGeometry relative="1" as="geometry" />
        </mxCell>
        <mxCell id="xwTxOlrmxbcmbd0Et-hI-0" value="start" style="ellipse;whiteSpace=wrap;html=1;" vertex="1" parent="WIyWlLk6GJQsqaUBKTNV-1">
          <mxGeometry x="170" y="40" width="100" height="70" as="geometry" />
        </mxCell>
        <mxCell id="xwTxOlrmxbcmbd0Et-hI-17" value="" style="edgeStyle=orthogonalEdgeStyle;rounded=0;orthogonalLoop=1;jettySize=auto;html=1;" edge="1" parent="WIyWlLk6GJQsqaUBKTNV-1" source="xwTxOlrmxbcmbd0Et-hI-1" target="xwTxOlrmxbcmbd0Et-hI-5">
          <mxGeometry relative="1" as="geometry" />
        </mxCell>
        <mxCell id="xwTxOlrmxbcmbd0Et-hI-1" value="double diskon&amp;nbsp;&lt;br&gt;int jumlah_buku, harga_buku, bayar&lt;br&gt;String jenis_buku" style="shape=hexagon;perimeter=hexagonPerimeter2;whiteSpace=wrap;html=1;fixedSize=1;" vertex="1" parent="WIyWlLk6GJQsqaUBKTNV-1">
          <mxGeometry x="132.5" y="150" width="175" height="70" as="geometry" />
        </mxCell>
        <mxCell id="xwTxOlrmxbcmbd0Et-hI-18" value="" style="edgeStyle=orthogonalEdgeStyle;rounded=0;orthogonalLoop=1;jettySize=auto;html=1;" edge="1" parent="WIyWlLk6GJQsqaUBKTNV-1" source="xwTxOlrmxbcmbd0Et-hI-5" target="xwTxOlrmxbcmbd0Et-hI-6">
          <mxGeometry relative="1" as="geometry" />
        </mxCell>
        <mxCell id="xwTxOlrmxbcmbd0Et-hI-5" value="jumlah_buku, jenis_buku, harga_buku" style="shape=parallelogram;perimeter=parallelogramPerimeter;whiteSpace=wrap;html=1;fixedSize=1;" vertex="1" parent="WIyWlLk6GJQsqaUBKTNV-1">
          <mxGeometry x="135" y="250" width="170" height="60" as="geometry" />
        </mxCell>
        <mxCell id="xwTxOlrmxbcmbd0Et-hI-19" value="" style="edgeStyle=orthogonalEdgeStyle;rounded=0;orthogonalLoop=1;jettySize=auto;html=1;" edge="1" parent="WIyWlLk6GJQsqaUBKTNV-1" source="xwTxOlrmxbcmbd0Et-hI-6" target="xwTxOlrmxbcmbd0Et-hI-10">
          <mxGeometry relative="1" as="geometry" />
        </mxCell>
        <mxCell id="xwTxOlrmxbcmbd0Et-hI-33" value="false" style="edgeLabel;html=1;align=center;verticalAlign=middle;resizable=0;points=[];" vertex="1" connectable="0" parent="xwTxOlrmxbcmbd0Et-hI-19">
          <mxGeometry x="-0.0733" y="1" relative="1" as="geometry">
            <mxPoint as="offset" />
          </mxGeometry>
        </mxCell>
        <mxCell id="xwTxOlrmxbcmbd0Et-hI-22" value="" style="edgeStyle=orthogonalEdgeStyle;rounded=0;orthogonalLoop=1;jettySize=auto;html=1;" edge="1" parent="WIyWlLk6GJQsqaUBKTNV-1" source="xwTxOlrmxbcmbd0Et-hI-6" target="xwTxOlrmxbcmbd0Et-hI-7">
          <mxGeometry relative="1" as="geometry" />
        </mxCell>
        <mxCell id="xwTxOlrmxbcmbd0Et-hI-34" value="true" style="edgeLabel;html=1;align=center;verticalAlign=middle;resizable=0;points=[];" vertex="1" connectable="0" parent="xwTxOlrmxbcmbd0Et-hI-22">
          <mxGeometry x="0.1884" relative="1" as="geometry">
            <mxPoint as="offset" />
          </mxGeometry>
        </mxCell>
        <mxCell id="xwTxOlrmxbcmbd0Et-hI-6" value="jenis_buku = kamus" style="rhombus;whiteSpace=wrap;html=1;" vertex="1" parent="WIyWlLk6GJQsqaUBKTNV-1">
          <mxGeometry x="140" y="340" width="160" height="80" as="geometry" />
        </mxCell>
        <mxCell id="xwTxOlrmxbcmbd0Et-hI-23" value="" style="edgeStyle=orthogonalEdgeStyle;rounded=0;orthogonalLoop=1;jettySize=auto;html=1;" edge="1" parent="WIyWlLk6GJQsqaUBKTNV-1" source="xwTxOlrmxbcmbd0Et-hI-7" target="xwTxOlrmxbcmbd0Et-hI-8">
          <mxGeometry relative="1" as="geometry" />
        </mxCell>
        <mxCell id="xwTxOlrmxbcmbd0Et-hI-35" value="true" style="edgeLabel;html=1;align=center;verticalAlign=middle;resizable=0;points=[];" vertex="1" connectable="0" parent="xwTxOlrmxbcmbd0Et-hI-23">
          <mxGeometry x="-0.0247" y="1" relative="1" as="geometry">
            <mxPoint as="offset" />
          </mxGeometry>
        </mxCell>
        <mxCell id="xwTxOlrmxbcmbd0Et-hI-27" value="" style="edgeStyle=orthogonalEdgeStyle;rounded=0;orthogonalLoop=1;jettySize=auto;html=1;" edge="1" parent="WIyWlLk6GJQsqaUBKTNV-1" source="xwTxOlrmxbcmbd0Et-hI-7" target="xwTxOlrmxbcmbd0Et-hI-9">
          <mxGeometry relative="1" as="geometry" />
        </mxCell>
        <mxCell id="xwTxOlrmxbcmbd0Et-hI-37" value="false" style="edgeLabel;html=1;align=center;verticalAlign=middle;resizable=0;points=[];" vertex="1" connectable="0" parent="xwTxOlrmxbcmbd0Et-hI-27">
          <mxGeometry x="0.3333" y="-1" relative="1" as="geometry">
            <mxPoint as="offset" />
          </mxGeometry>
        </mxCell>
        <mxCell id="xwTxOlrmxbcmbd0Et-hI-7" value="jumlah_buku &amp;gt; 2" style="rhombus;whiteSpace=wrap;html=1;" vertex="1" parent="WIyWlLk6GJQsqaUBKTNV-1">
          <mxGeometry x="334" y="340" width="160" height="80" as="geometry" />
        </mxCell>
        <mxCell id="xwTxOlrmxbcmbd0Et-hI-8" value="diskon = 0.12" style="shape=parallelogram;perimeter=parallelogramPerimeter;whiteSpace=wrap;html=1;fixedSize=1;" vertex="1" parent="WIyWlLk6GJQsqaUBKTNV-1">
          <mxGeometry x="530" y="350" width="120" height="60" as="geometry" />
        </mxCell>
        <mxCell id="xwTxOlrmxbcmbd0Et-hI-9" value="diskon = 0.1" style="shape=parallelogram;perimeter=parallelogramPerimeter;whiteSpace=wrap;html=1;fixedSize=1;" vertex="1" parent="WIyWlLk6GJQsqaUBKTNV-1">
          <mxGeometry x="354" y="450" width="120" height="60" as="geometry" />
        </mxCell>
        <mxCell id="xwTxOlrmxbcmbd0Et-hI-20" value="" style="edgeStyle=orthogonalEdgeStyle;rounded=0;orthogonalLoop=1;jettySize=auto;html=1;" edge="1" parent="WIyWlLk6GJQsqaUBKTNV-1" source="xwTxOlrmxbcmbd0Et-hI-10" target="xwTxOlrmxbcmbd0Et-hI-14">
          <mxGeometry relative="1" as="geometry" />
        </mxCell>
        <mxCell id="xwTxOlrmxbcmbd0Et-hI-38" value="false" style="edgeLabel;html=1;align=center;verticalAlign=middle;resizable=0;points=[];" vertex="1" connectable="0" parent="xwTxOlrmxbcmbd0Et-hI-20">
          <mxGeometry x="-0.0778" y="-1" relative="1" as="geometry">
            <mxPoint as="offset" />
          </mxGeometry>
        </mxCell>
        <mxCell id="xwTxOlrmxbcmbd0Et-hI-28" value="" style="edgeStyle=orthogonalEdgeStyle;rounded=0;orthogonalLoop=1;jettySize=auto;html=1;" edge="1" parent="WIyWlLk6GJQsqaUBKTNV-1" source="xwTxOlrmxbcmbd0Et-hI-10" target="xwTxOlrmxbcmbd0Et-hI-11">
          <mxGeometry relative="1" as="geometry" />
        </mxCell>
        <mxCell id="xwTxOlrmxbcmbd0Et-hI-39" value="true" style="edgeLabel;html=1;align=center;verticalAlign=middle;resizable=0;points=[];" vertex="1" connectable="0" parent="xwTxOlrmxbcmbd0Et-hI-28">
          <mxGeometry x="-0.4203" relative="1" as="geometry">
            <mxPoint as="offset" />
          </mxGeometry>
        </mxCell>
        <mxCell id="xwTxOlrmxbcmbd0Et-hI-10" value="jenis_buku = novel" style="rhombus;whiteSpace=wrap;html=1;" vertex="1" parent="WIyWlLk6GJQsqaUBKTNV-1">
          <mxGeometry x="140" y="520" width="160" height="80" as="geometry" />
        </mxCell>
        <mxCell id="xwTxOlrmxbcmbd0Et-hI-30" value="" style="edgeStyle=orthogonalEdgeStyle;rounded=0;orthogonalLoop=1;jettySize=auto;html=1;" edge="1" parent="WIyWlLk6GJQsqaUBKTNV-1" source="xwTxOlrmxbcmbd0Et-hI-11" target="xwTxOlrmxbcmbd0Et-hI-12">
          <mxGeometry relative="1" as="geometry" />
        </mxCell>
        <mxCell id="xwTxOlrmxbcmbd0Et-hI-40" value="true" style="edgeLabel;html=1;align=center;verticalAlign=middle;resizable=0;points=[];" vertex="1" connectable="0" parent="xwTxOlrmxbcmbd0Et-hI-30">
          <mxGeometry x="0.0864" relative="1" as="geometry">
            <mxPoint as="offset" />
          </mxGeometry>
        </mxCell>
        <mxCell id="xwTxOlrmxbcmbd0Et-hI-31" value="" style="edgeStyle=orthogonalEdgeStyle;rounded=0;orthogonalLoop=1;jettySize=auto;html=1;" edge="1" parent="WIyWlLk6GJQsqaUBKTNV-1" source="xwTxOlrmxbcmbd0Et-hI-11" target="xwTxOlrmxbcmbd0Et-hI-13">
          <mxGeometry relative="1" as="geometry" />
        </mxCell>
        <mxCell id="xwTxOlrmxbcmbd0Et-hI-41" value="false" style="edgeLabel;html=1;align=center;verticalAlign=middle;resizable=0;points=[];" vertex="1" connectable="0" parent="xwTxOlrmxbcmbd0Et-hI-31">
          <mxGeometry x="-0.1833" y="-3" relative="1" as="geometry">
            <mxPoint as="offset" />
          </mxGeometry>
        </mxCell>
        <mxCell id="xwTxOlrmxbcmbd0Et-hI-11" value="jumlah_buku &amp;gt; 3" style="rhombus;whiteSpace=wrap;html=1;" vertex="1" parent="WIyWlLk6GJQsqaUBKTNV-1">
          <mxGeometry x="334" y="520" width="160" height="80" as="geometry" />
        </mxCell>
        <mxCell id="xwTxOlrmxbcmbd0Et-hI-12" value="diskon = 0.09" style="shape=parallelogram;perimeter=parallelogramPerimeter;whiteSpace=wrap;html=1;fixedSize=1;" vertex="1" parent="WIyWlLk6GJQsqaUBKTNV-1">
          <mxGeometry x="530" y="530" width="120" height="60" as="geometry" />
        </mxCell>
        <mxCell id="xwTxOlrmxbcmbd0Et-hI-13" value="diskon = 0.08" style="shape=parallelogram;perimeter=parallelogramPerimeter;whiteSpace=wrap;html=1;fixedSize=1;" vertex="1" parent="WIyWlLk6GJQsqaUBKTNV-1">
          <mxGeometry x="354" y="640" width="120" height="60" as="geometry" />
        </mxCell>
        <mxCell id="xwTxOlrmxbcmbd0Et-hI-21" value="" style="edgeStyle=orthogonalEdgeStyle;rounded=0;orthogonalLoop=1;jettySize=auto;html=1;" edge="1" parent="WIyWlLk6GJQsqaUBKTNV-1" source="xwTxOlrmxbcmbd0Et-hI-14" target="xwTxOlrmxbcmbd0Et-hI-16">
          <mxGeometry relative="1" as="geometry" />
        </mxCell>
        <mxCell id="xwTxOlrmxbcmbd0Et-hI-44" value="false" style="edgeLabel;html=1;align=center;verticalAlign=middle;resizable=0;points=[];" vertex="1" connectable="0" parent="xwTxOlrmxbcmbd0Et-hI-21">
          <mxGeometry x="-0.1333" relative="1" as="geometry">
            <mxPoint as="offset" />
          </mxGeometry>
        </mxCell>
        <mxCell id="xwTxOlrmxbcmbd0Et-hI-32" value="" style="edgeStyle=orthogonalEdgeStyle;rounded=0;orthogonalLoop=1;jettySize=auto;html=1;" edge="1" parent="WIyWlLk6GJQsqaUBKTNV-1" source="xwTxOlrmxbcmbd0Et-hI-14" target="xwTxOlrmxbcmbd0Et-hI-15">
          <mxGeometry relative="1" as="geometry" />
        </mxCell>
        <mxCell id="xwTxOlrmxbcmbd0Et-hI-43" value="true" style="edgeLabel;html=1;align=center;verticalAlign=middle;resizable=0;points=[];" vertex="1" connectable="0" parent="xwTxOlrmxbcmbd0Et-hI-32">
          <mxGeometry x="-0.0833" relative="1" as="geometry">
            <mxPoint as="offset" />
          </mxGeometry>
        </mxCell>
        <mxCell id="xwTxOlrmxbcmbd0Et-hI-14" value="jumlah_buku &amp;gt; 3" style="rhombus;whiteSpace=wrap;html=1;" vertex="1" parent="WIyWlLk6GJQsqaUBKTNV-1">
          <mxGeometry x="140" y="720" width="160" height="80" as="geometry" />
        </mxCell>
        <mxCell id="xwTxOlrmxbcmbd0Et-hI-15" value="diskon = 0.05" style="shape=parallelogram;perimeter=parallelogramPerimeter;whiteSpace=wrap;html=1;fixedSize=1;" vertex="1" parent="WIyWlLk6GJQsqaUBKTNV-1">
          <mxGeometry x="354" y="730" width="120" height="60" as="geometry" />
        </mxCell>
        <mxCell id="xwTxOlrmxbcmbd0Et-hI-49" value="" style="edgeStyle=orthogonalEdgeStyle;rounded=0;orthogonalLoop=1;jettySize=auto;html=1;" edge="1" parent="WIyWlLk6GJQsqaUBKTNV-1" source="xwTxOlrmxbcmbd0Et-hI-16" target="xwTxOlrmxbcmbd0Et-hI-48">
          <mxGeometry relative="1" as="geometry" />
        </mxCell>
        <mxCell id="xwTxOlrmxbcmbd0Et-hI-16" value="diskon = 0" style="shape=parallelogram;perimeter=parallelogramPerimeter;whiteSpace=wrap;html=1;fixedSize=1;" vertex="1" parent="WIyWlLk6GJQsqaUBKTNV-1">
          <mxGeometry x="160" y="840" width="120" height="60" as="geometry" />
        </mxCell>
        <mxCell id="xwTxOlrmxbcmbd0Et-hI-52" value="" style="edgeStyle=orthogonalEdgeStyle;rounded=0;orthogonalLoop=1;jettySize=auto;html=1;" edge="1" parent="WIyWlLk6GJQsqaUBKTNV-1" source="xwTxOlrmxbcmbd0Et-hI-48" target="xwTxOlrmxbcmbd0Et-hI-50">
          <mxGeometry relative="1" as="geometry" />
        </mxCell>
        <mxCell id="xwTxOlrmxbcmbd0Et-hI-48" value="bayar = harga_buku - (diskon * bayar)" style="rounded=0;whiteSpace=wrap;html=1;" vertex="1" parent="WIyWlLk6GJQsqaUBKTNV-1">
          <mxGeometry x="120" y="940" width="200" height="60" as="geometry" />
        </mxCell>
        <mxCell id="xwTxOlrmxbcmbd0Et-hI-53" value="" style="edgeStyle=orthogonalEdgeStyle;rounded=0;orthogonalLoop=1;jettySize=auto;html=1;" edge="1" parent="WIyWlLk6GJQsqaUBKTNV-1" source="xwTxOlrmxbcmbd0Et-hI-50" target="xwTxOlrmxbcmbd0Et-hI-51">
          <mxGeometry relative="1" as="geometry" />
        </mxCell>
        <mxCell id="xwTxOlrmxbcmbd0Et-hI-50" value="bayar" style="shape=parallelogram;perimeter=parallelogramPerimeter;whiteSpace=wrap;html=1;fixedSize=1;" vertex="1" parent="WIyWlLk6GJQsqaUBKTNV-1">
          <mxGeometry x="160" y="1040" width="120" height="60" as="geometry" />
        </mxCell>
        <mxCell id="xwTxOlrmxbcmbd0Et-hI-51" value="end" style="ellipse;whiteSpace=wrap;html=1;" vertex="1" parent="WIyWlLk6GJQsqaUBKTNV-1">
          <mxGeometry x="165" y="1130" width="110" height="70" as="geometry" />
        </mxCell>
        <mxCell id="xwTxOlrmxbcmbd0Et-hI-55" value="" style="endArrow=classic;html=1;rounded=0;entryX=1;entryY=0.5;entryDx=0;entryDy=0;" edge="1" parent="WIyWlLk6GJQsqaUBKTNV-1" target="xwTxOlrmxbcmbd0Et-hI-48">
          <mxGeometry width="50" height="50" relative="1" as="geometry">
            <mxPoint x="640" y="380" as="sourcePoint" />
            <mxPoint x="480" y="670" as="targetPoint" />
            <Array as="points">
              <mxPoint x="720" y="380" />
              <mxPoint x="720" y="970" />
            </Array>
          </mxGeometry>
        </mxCell>
        <mxCell id="xwTxOlrmxbcmbd0Et-hI-57" value="" style="endArrow=classic;html=1;rounded=0;" edge="1" parent="WIyWlLk6GJQsqaUBKTNV-1">
          <mxGeometry width="50" height="50" relative="1" as="geometry">
            <mxPoint x="640" y="559.6" as="sourcePoint" />
            <mxPoint x="720" y="560" as="targetPoint" />
          </mxGeometry>
        </mxCell>
        <mxCell id="xwTxOlrmxbcmbd0Et-hI-58" value="" style="endArrow=classic;html=1;rounded=0;" edge="1" parent="WIyWlLk6GJQsqaUBKTNV-1">
          <mxGeometry width="50" height="50" relative="1" as="geometry">
            <mxPoint x="465" y="669.5999999999999" as="sourcePoint" />
            <mxPoint x="720" y="670" as="targetPoint" />
          </mxGeometry>
        </mxCell>
        <mxCell id="xwTxOlrmxbcmbd0Et-hI-59" value="" style="endArrow=classic;html=1;rounded=0;" edge="1" parent="WIyWlLk6GJQsqaUBKTNV-1">
          <mxGeometry width="50" height="50" relative="1" as="geometry">
            <mxPoint x="465" y="479.5999999999999" as="sourcePoint" />
            <mxPoint x="720" y="480" as="targetPoint" />
          </mxGeometry>
        </mxCell>
        <mxCell id="xwTxOlrmxbcmbd0Et-hI-60" value="" style="endArrow=classic;html=1;rounded=0;" edge="1" parent="WIyWlLk6GJQsqaUBKTNV-1">
          <mxGeometry width="50" height="50" relative="1" as="geometry">
            <mxPoint x="465" y="759.5999999999999" as="sourcePoint" />
            <mxPoint x="720" y="760" as="targetPoint" />
          </mxGeometry>
        </mxCell>
      </root>
    </mxGraphModel>
  </diagram>
</mxfile>
